# xmcd CD database file
#
# Track frame offsets:
#	150
#	15141
#	29502
#	43998
#	61853
#	78192
#	96193
#	111321
#	125374
#	140853
#
# Disc length: 2186 seconds
#
# Revision: 0
# Processed by: cddbd v1.5.2PL0 Copyright (c) Steve Scherf et al.
# Submitted via: CDex 1.51
#
DISCID=8108880a
DTITLE=Glen Cardier - House of mirrors
DYEAR=1900
DGENRE=Blues
TTITLE0=Water finds its own level
TTITLE1=Strangers
TTITLE2=Wild in the summertime
TTITLE3=Elvis at the checkout
TTITLE4=Asylum blues
TTITLE5=Dancing the years away
TTITLE6=Mr Happy
TTITLE7=Free to fly
TTITLE8=House of mirrors
TTITLE9=Come back to me
EXTD=
EXTT0=
EXTT1=
EXTT2=
EXTT3=
EXTT4=
EXTT5=
EXTT6=
EXTT7=
EXTT8=
EXTT9=
PLAYORDER=
